<svg xmlns="http://www.w3.org/2000/svg" xmlns:xlink="http://www.w3.org/1999/xlink" width="99.381" height="36.769" viewBox="0 0 99.381 36.769">
  <defs>
    <linearGradient id="linear-gradient" x1="0.5" x2="0.5" y2="1" gradientUnits="objectBoundingBox">
      <stop offset="0" stop-color="#fff"/>
      <stop offset="1" stop-color="#fff"/>
    </linearGradient>
    <linearGradient id="linear-gradient-2" x1="0.5" x2="0.5" y2="1" gradientUnits="objectBoundingBox">
      <stop offset="0" stop-color="#4776e6"/>
      <stop offset="1" stop-color="#8e54e9"/>
    </linearGradient>
  </defs>
  <g id="Group_54" data-name="Group 54" transform="translate(-114.332 -194.387)">
    <g id="Group_48" data-name="Group 48" transform="translate(114.332 194.387)">
      <path id="Path_68" data-name="Path 68" d="M-55.329-8.311h20.543l.379,9.165H-47.033l-.061,3.371s5.517-.085,8.673,1.133,3.731,2.38,4.662,3.951a8.163,8.163,0,0,1,.79,3.951s2.021,6.88-.79,10.272-8.257,4.458-10.8,4.752a26.588,26.588,0,0,1-6.153-.194A21.628,21.628,0,0,1-59.6,24.321l2.923-9.8s4.109,3.16,7.664,3.635,7.19,1.1,7.743-3-9.381-3.392-15.744-3.708Z" transform="translate(59.596 8.311)" fill="url(#linear-gradient)"/>
      <path id="Path_67" data-name="Path 67" d="M-54.731,0h18.822V6.842H-48.283l-.265,5.7a25.794,25.794,0,0,1,5.847.385c3.165.58,4.573,1.081,5.87,1.912a12.649,12.649,0,0,1,2.64,2.931,10.374,10.374,0,0,1,1.173,3.27s1.534,4.8-1.227,8.173a16.8,16.8,0,0,1-9.974,5.368,25.8,25.8,0,0,1-6.044-.193,20.641,20.641,0,0,1-8.43-3.414l2.313-7.378a26.259,26.259,0,0,0,5.049,2.59c1.449.513,4.33,1.564,7.113.708s3.548-1.814,4.018-4.133a3.609,3.609,0,0,0-2.006-3.77c-2.661-1.205-7.923-1.079-14.174-1.393Z" transform="translate(59.981 1.001)" fill="url(#linear-gradient-2)"/>
    </g>
    <g id="Group_47" data-name="Group 47" transform="translate(135.549 206.216)">
      <path id="Union_4" data-name="Union 4" d="M30.589,24.921H23.94V.044h6.649V24.921h0Zm-18.74-.045a13.093,13.093,0,0,1-2.277-.334c-.57-.135-.93-.259-.945-.265s-.527-.165-1.233-.47A12.964,12.964,0,0,1,4.92,22.423a13.326,13.326,0,0,1-2.074-1.969c-.516-.6-.831-1.05-.834-1.054a12.336,12.336,0,0,1-.626-1.093,12.583,12.583,0,0,1-1-2.585,14.594,14.594,0,0,1-.372-2.885c-.029-.8,0-1.369,0-1.393,0-.005.04-.534.176-1.283A12.715,12.715,0,0,1,.956,7.509,12.514,12.514,0,0,1,2.348,5.142c.443-.6.8-.994.8-1a11.386,11.386,0,0,1,.923-.921,13.272,13.272,0,0,1,1.038-.845,10.643,10.643,0,0,1,1.319-.83,14.815,14.815,0,0,1,2.9-1.09C10.172.23,10.788.124,10.794.123a17.546,17.546,0,0,1,1.76-.079,16.679,16.679,0,0,1,4.913.678,10.186,10.186,0,0,1,2.1.956,11.982,11.982,0,0,1,1.58,1.13,10.532,10.532,0,0,1,1.344,1.337L19.577,7.691s-.4-.287-1.069-.662A16.99,16.99,0,0,0,15.756,5.79a7.039,7.039,0,0,0-2.282-.347,11.124,11.124,0,0,0-3.336.546,6.6,6.6,0,0,0-3.987,6.054,6.689,6.689,0,0,0,3.281,6.434,10.523,10.523,0,0,0,4.424,1.063,7.309,7.309,0,0,0,1.553-.161,9.034,9.034,0,0,0,3.04-1.317,7.917,7.917,0,0,0,1.133-.9l2.9,3.907h0a7.793,7.793,0,0,1-.656.667,13.872,13.872,0,0,1-1.983,1.5,8.355,8.355,0,0,1-1.389.689,12.8,12.8,0,0,1-2.729.72,24.542,24.542,0,0,1-3.2.245C12.293,24.892,12.063,24.886,11.849,24.875Zm36.365-.026-5.535-.5-6.043.5V4.563l.02-.006H32.081L32.047.017,53.8,0V4.558H48.214V24.849h0ZM42.678,24.2l.35.057L42.642,3.285l5.624,1.2-5.789-2-5.789,2,5.646-1.21-.117,20.98.461-.057Zm-5.4-2.9v1.2l1.768-.352V20.9Zm2.522-.589v1.2l1.768-.352V20.313Zm-2.522-1.839v1.2l1.768-.352V18.475Zm2.522-.458v1.2l1.768-.352V18.016Zm-2.522-1.81v1.2l1.768-.352V16.207Zm2.522-.458v1.2l1.768-.352V15.748Zm-2.522-1.838v1.2l1.768-.352V13.91ZM39.8,13.72v1.2l1.768-.352V13.32Zm-2.522-1.839v1.2l1.768-.352V11.482Zm2.522-.458v1.2l1.768-.352V11.023ZM37.282,9.848v1.2l1.768-.352V9.449ZM39.8,9.39v1.2l1.768-.352V8.99ZM37.282,7.551v1.2L39.05,8.4V7.152ZM39.8,6.962v1.2l1.768-.352V6.562ZM37.282,5.123v1.2l1.768-.352V4.724ZM39.8,4.665v1.2l1.768-.352V4.265Z" transform="translate(0 0.019)" fill="#fff"/>
      <path id="Exclusion_3" data-name="Exclusion 3" d="M0,0H6.014l5.811,11.659L17.353,0h6l-7.93,15.445V24.41H8.084V15.445Z" transform="translate(54.809 0)" fill="#fff"/>
    </g>
  </g>
</svg>